<?xml version="1.0" encoding="UTF-8" standalone="no"?>
<svg
   width="1920"
   height="1080"
   viewBox="0 0 507.99999 285.75001"
   version="1.1"
   id="svg8"
   inkscape:version="1.1 (c68e22c387, 2021-05-23)"
   sodipodi:docname="4.svg"
   inkscape:export-filename="/home/vlad/Desktop/Wallpaper/background6.png"
   inkscape:export-xdpi="96"
   inkscape:export-ydpi="96"
   xmlns:inkscape="http://www.inkscape.org/namespaces/inkscape"
   xmlns:sodipodi="http://sodipodi.sourceforge.net/DTD/sodipodi-0.dtd"
   xmlns="http://www.w3.org/2000/svg"
   xmlns:svg="http://www.w3.org/2000/svg"
   xmlns:rdf="http://www.w3.org/1999/02/22-rdf-syntax-ns#"
   xmlns:cc="http://creativecommons.org/ns#"
   xmlns:dc="http://purl.org/dc/elements/1.1/">
  <defs
     id="defs2" />
  <sodipodi:namedview
     id="base"
     pagecolor="#ffffff"
     bordercolor="#666666"
     borderopacity="1.0"
     inkscape:pageopacity="0.0"
     inkscape:pageshadow="2"
     inkscape:zoom="0.32"
     inkscape:cx="407.8125"
     inkscape:cy="420.3125"
     inkscape:document-units="mm"
     inkscape:current-layer="layer1"
     inkscape:document-rotation="0"
     showgrid="false"
     units="px"
     inkscape:window-width="1920"
     inkscape:window-height="1052"
     inkscape:window-x="0"
     inkscape:window-y="0"
     inkscape:window-maximized="1"
     inkscape:pagecheckerboard="0" />
  <metadata
     id="metadata5">
    <rdf:RDF>
      <cc:Work
         rdf:about="">
        <dc:format>image/svg+xml</dc:format>
        <dc:type
           rdf:resource="http://purl.org/dc/dcmitype/StillImage" />
      </cc:Work>
    </rdf:RDF>
  </metadata>
  <g
     inkscape:groupmode="layer"
     id="layer2"
     inkscape:label="Layer 2" />
  <g
     inkscape:label="Layer 1"
     inkscape:groupmode="layer"
     id="layer1">
    <path
       id="rect835-02"
       style="fill:#c5cae9;fill-opacity:1;stroke:none;stroke-width:0.199627"
       d="M -47.250592,-20.713968 0.84993405,-48.095843 c 0,0 0,0 0,54.763744 z"
       sodipodi:nodetypes="cccc" />
    <path
       id="rect835-02-3"
       style="fill:#9fa8da;fill-opacity:1;stroke:none;stroke-width:0.199627"
       d="M 48.95046,-20.713947 0.849938,-48.09582 c 0,0 0,0 0,54.763742 z"
       sodipodi:nodetypes="cccc" />
    <path
       id="rect835-02-6"
       style="fill:#7986cb;fill-opacity:1;stroke:none;stroke-width:0.199627"
       d="M 0.849934,7.163191 48.95046,-20.218682 c 0,0 0,0 0,54.763742 z"
       sodipodi:nodetypes="cccc" />
    <path
       id="rect835-02-6-5"
       style="fill:#5c6bc0;fill-opacity:1;stroke:none;stroke-width:0.199627"
       d="M 48.950458,34.545061 0.849932,61.926934 c 0,0 0,0 0,-54.763742 z"
       sodipodi:nodetypes="cccc" />
    <path
       id="rect835-02-6-5-6"
       style="fill:#3f51b5;fill-opacity:1;stroke:none;stroke-width:0.199627"
       d="M -47.250598,34.545054 0.849928,7.163181 c 0,0 0,0 0,54.763742 z"
       sodipodi:nodetypes="cccc" />
    <path
       id="rect835-02-6-5-6-2"
       style="fill:#3949ab;fill-opacity:1;stroke:none;stroke-width:0.199627"
       d="M 0.84993405,6.667901 -47.250592,-20.713973 c 0,0 0,0 0,54.763743 z"
       sodipodi:nodetypes="cccc" />
    <path
       id="rect835-02-9"
       style="fill:#c5cae9;fill-opacity:1;stroke:none;stroke-width:0.199627"
       d="M 48.950458,-20.713969 97.05098,-48.095844 c 0,0 0,0 0,54.763744 z"
       sodipodi:nodetypes="cccc" />
    <path
       id="rect835-02-3-1"
       style="fill:#9fa8da;fill-opacity:1;stroke:none;stroke-width:0.199627"
       d="M 145.15151,-20.713948 97.05099,-48.095821 c 0,0 0,0 0,54.763742 z"
       sodipodi:nodetypes="cccc" />
    <path
       id="rect835-02-6-2"
       style="fill:#7986cb;fill-opacity:1;stroke:none;stroke-width:0.199627"
       d="m 97.05098,7.16319 48.10053,-27.381873 c 0,0 0,0 0,54.763742 z"
       sodipodi:nodetypes="cccc" />
    <path
       id="rect835-02-6-5-7"
       style="fill:#5c6bc0;fill-opacity:1;stroke:none;stroke-width:0.199627"
       d="M 145.15151,34.54506 97.05098,61.926932 c 0,0 0,0 0,-54.763741 z"
       sodipodi:nodetypes="cccc" />
    <path
       id="rect835-02-6-5-6-0"
       style="fill:#3f51b5;fill-opacity:1;stroke:none;stroke-width:0.199627"
       d="M 48.950452,34.545053 97.05098,7.16318 c 0,0 0,0 0,54.763742 z"
       sodipodi:nodetypes="cccc" />
    <path
       id="rect835-02-6-5-6-2-9"
       style="fill:#3949ab;fill-opacity:1;stroke:none;stroke-width:0.199627"
       d="M 97.05098,6.6679 48.950458,-20.713974 c 0,0 0,0 0,54.763743 z"
       sodipodi:nodetypes="cccc" />
    <path
       id="rect835-02-36"
       style="fill:#c5cae9;fill-opacity:1;stroke:none;stroke-width:0.199627"
       d="m 145.15152,-20.713979 48.10052,-27.381875 c 0,0 0,0 0,54.763744 z"
       sodipodi:nodetypes="cccc" />
    <path
       id="rect835-02-3-0"
       style="fill:#9fa8da;fill-opacity:1;stroke:none;stroke-width:0.199627"
       d="m 241.35257,-20.713958 -48.10052,-27.381873 c 0,0 0,0 0,54.763742 z"
       sodipodi:nodetypes="cccc" />
    <path
       id="rect835-02-6-6"
       style="fill:#7986cb;fill-opacity:1;stroke:none;stroke-width:0.199627"
       d="m 193.25204,7.16318 48.10053,-27.381873 c 0,0 0,0 0,54.763742 z"
       sodipodi:nodetypes="cccc" />
    <path
       id="rect835-02-6-5-2"
       style="fill:#5c6bc0;fill-opacity:1;stroke:none;stroke-width:0.199627"
       d="m 241.35257,34.54505 -48.10053,27.381873 c 0,0 0,0 0,-54.763742 z"
       sodipodi:nodetypes="cccc" />
    <path
       id="rect835-02-6-5-6-6"
       style="fill:#3f51b5;fill-opacity:1;stroke:none;stroke-width:0.199627"
       d="M 145.15151,34.545043 193.25204,7.16317 c 0,0 0,0 0,54.763742 z"
       sodipodi:nodetypes="cccc" />
    <path
       id="rect835-02-6-5-6-2-1"
       style="fill:#3949ab;fill-opacity:1;stroke:none;stroke-width:0.199627"
       d="m 193.25204,6.66789 -48.10052,-27.381874 c 0,0 0,0 0,54.763743 z"
       sodipodi:nodetypes="cccc" />
    <path
       id="rect835-02-8"
       style="fill:#c5cae9;fill-opacity:1;stroke:none;stroke-width:0.199627"
       d="m 241.35258,-20.713999 48.10052,-27.381875 c 0,0 0,0 0,54.763744 z"
       sodipodi:nodetypes="cccc" />
    <path
       id="rect835-02-3-7"
       style="fill:#9fa8da;fill-opacity:1;stroke:none;stroke-width:0.199627"
       d="m 337.55363,-20.713978 -48.10052,-27.381873 c 0,0 0,0 0,54.763742 z"
       sodipodi:nodetypes="cccc" />
    <path
       id="rect835-02-6-9"
       style="fill:#7986cb;fill-opacity:1;stroke:none;stroke-width:0.199627"
       d="m 289.4531,7.16316 48.10053,-27.381873 c 0,0 0,0 0,54.763742 z"
       sodipodi:nodetypes="cccc" />
    <path
       id="rect835-02-6-5-20"
       style="fill:#5c6bc0;fill-opacity:1;stroke:none;stroke-width:0.199627"
       d="M 337.55363,34.54503 289.4531,61.926903 c 0,0 0,0 0,-54.763742 z"
       sodipodi:nodetypes="cccc" />
    <path
       id="rect835-02-6-5-6-23"
       style="fill:#3f51b5;fill-opacity:1;stroke:none;stroke-width:0.199627"
       d="M 241.35257,34.545023 289.4531,7.16315 c 0,0 0,0 0,54.763742 z"
       sodipodi:nodetypes="cccc" />
    <path
       id="rect835-02-6-5-6-2-7"
       style="fill:#3949ab;fill-opacity:1;stroke:none;stroke-width:0.199627"
       d="m 289.4531,6.66787 -48.10052,-27.381874 c 0,0 0,0 0,54.763743 z"
       sodipodi:nodetypes="cccc" />
    <path
       id="rect835-02-5"
       style="fill:#c5cae9;fill-opacity:1;stroke:none;stroke-width:0.199627"
       d="m 337.55363,-20.713978 48.10052,-27.381875 c 0,0 0,0 0,54.763744 z"
       sodipodi:nodetypes="cccc" />
    <path
       id="rect835-02-3-9"
       style="fill:#9fa8da;fill-opacity:1;stroke:none;stroke-width:0.199627"
       d="M 433.75468,-20.713957 385.65416,-48.09583 c 0,0 0,0 0,54.763742 z"
       sodipodi:nodetypes="cccc" />
    <path
       id="rect835-02-6-22"
       style="fill:#7986cb;fill-opacity:1;stroke:none;stroke-width:0.199627"
       d="m 385.65415,7.163181 48.10053,-27.381873 c 0,0 0,0 0,54.763742 z"
       sodipodi:nodetypes="cccc" />
    <path
       id="rect835-02-6-5-8"
       style="fill:#5c6bc0;fill-opacity:1;stroke:none;stroke-width:0.199627"
       d="m 433.75468,34.545051 -48.10053,27.381873 c 0,0 0,0 0,-54.763742 z"
       sodipodi:nodetypes="cccc" />
    <path
       id="rect835-02-6-5-6-9"
       style="fill:#3f51b5;fill-opacity:1;stroke:none;stroke-width:0.199627"
       d="M 337.55362,34.545044 385.65415,7.163171 c 0,0 0,0 0,54.763742 z"
       sodipodi:nodetypes="cccc" />
    <path
       id="rect835-02-6-5-6-2-73"
       style="fill:#3949ab;fill-opacity:1;stroke:none;stroke-width:0.199627"
       d="m 385.65415,6.667891 -48.10052,-27.381874 c 0,0 0,0 0,54.763743 z"
       sodipodi:nodetypes="cccc" />
    <path
       id="rect835-02-61"
       style="fill:#c5cae9;fill-opacity:1;stroke:none;stroke-width:0.199627"
       d="m 433.75469,-20.713982 48.10052,-27.381875 c 0,0 0,0 0,54.763744 z"
       sodipodi:nodetypes="cccc" />
    <path
       id="rect835-02-3-2"
       style="fill:#9fa8da;fill-opacity:1;stroke:none;stroke-width:0.199627"
       d="m 529.95574,-20.713961 -48.10052,-27.381873 c 0,0 0,0 0,54.763742 z"
       sodipodi:nodetypes="cccc" />
    <path
       id="rect835-02-6-93"
       style="fill:#7986cb;fill-opacity:1;stroke:none;stroke-width:0.199627"
       d="m 481.85521,7.163177 48.10053,-27.381873 c 0,0 0,0 0,54.763742 z"
       sodipodi:nodetypes="cccc" />
    <path
       id="rect835-02-6-5-1"
       style="fill:#5c6bc0;fill-opacity:1;stroke:none;stroke-width:0.199627"
       d="M 529.95574,34.545047 481.85521,61.92692 c 0,0 0,0 0,-54.763742 z"
       sodipodi:nodetypes="cccc" />
    <path
       id="rect835-02-6-5-6-94"
       style="fill:#3f51b5;fill-opacity:1;stroke:none;stroke-width:0.199627"
       d="M 433.75468,34.54504 481.85521,7.163167 c 0,0 0,0 0,54.763742 z"
       sodipodi:nodetypes="cccc" />
    <path
       id="rect835-02-6-5-6-2-78"
       style="fill:#3949ab;fill-opacity:1;stroke:none;stroke-width:0.199627"
       d="m 481.85521,6.667887 -48.10052,-27.381874 c 0,0 0,0 0,54.763743 z"
       sodipodi:nodetypes="cccc" />
    <path
       id="rect835-02-4"
       style="fill:#c5cae9;fill-opacity:1;stroke:none;stroke-width:0.199627"
       d="m -95.35112,61.926913 48.10052,-27.38187 c 0,0 0,0 0,54.76374 z"
       sodipodi:nodetypes="cccc" />
    <path
       id="rect835-02-3-5"
       style="fill:#9fa8da;fill-opacity:1;stroke:none;stroke-width:0.199627"
       d="m 0.84993,61.926933 -48.10052,-27.38187 c 0,0 0,0 0,54.76374 z"
       sodipodi:nodetypes="cccc" />
    <path
       id="rect835-02-6-0"
       style="fill:#7986cb;fill-opacity:1;stroke:none;stroke-width:0.199627"
       d="M -47.2506,89.804073 0.84993,62.422203 c 0,0 0,0 0,54.763737 z"
       sodipodi:nodetypes="cccc" />
    <path
       id="rect835-02-6-5-3"
       style="fill:#5c6bc0;fill-opacity:1;stroke:none;stroke-width:0.199627"
       d="m 0.84993,117.18594 -48.10053,27.38187 c 0,0 0,0 0,-54.763737 z"
       sodipodi:nodetypes="cccc" />
    <path
       id="rect835-02-6-5-6-61"
       style="fill:#3f51b5;fill-opacity:1;stroke:none;stroke-width:0.199627"
       d="M -95.35113,117.18593 -47.2506,89.804063 c 0,0 0,0 0,54.763737 z"
       sodipodi:nodetypes="cccc" />
    <path
       id="rect835-02-6-5-6-2-0"
       style="fill:#3949ab;fill-opacity:1;stroke:none;stroke-width:0.199627"
       d="m -47.2506,89.308783 -48.10052,-27.38187 c 0,0 0,0 0,54.763737 z"
       sodipodi:nodetypes="cccc" />
    <path
       id="rect835-02-9-6"
       style="fill:#c5cae9;fill-opacity:1;stroke:none;stroke-width:0.199627"
       d="m 0.84993,61.926913 48.10052,-27.38187 c 0,0 0,0 0,54.76374 z"
       sodipodi:nodetypes="cccc" />
    <path
       id="rect835-02-3-1-3"
       style="fill:#9fa8da;fill-opacity:1;stroke:none;stroke-width:0.199627"
       d="M 97.05098,61.926933 48.95046,34.545063 c 0,0 0,0 0,54.76374 z"
       sodipodi:nodetypes="cccc" />
    <path
       id="rect835-02-6-2-2"
       style="fill:#7986cb;fill-opacity:1;stroke:none;stroke-width:0.199627"
       d="m 48.95045,89.804073 48.10053,-27.38187 c 0,0 0,0 0,54.763737 z"
       sodipodi:nodetypes="cccc" />
    <path
       id="rect835-02-6-5-7-0"
       style="fill:#5c6bc0;fill-opacity:1;stroke:none;stroke-width:0.199627"
       d="m 97.05098,117.18594 -48.10053,27.38187 c 0,0 0,0 0,-54.763737 z"
       sodipodi:nodetypes="cccc" />
    <path
       id="rect835-02-6-5-6-0-6"
       style="fill:#3f51b5;fill-opacity:1;stroke:none;stroke-width:0.199627"
       d="M 0.84992,117.18593 48.95045,89.804063 c 0,0 0,0 0,54.763737 z"
       sodipodi:nodetypes="cccc" />
    <path
       id="rect835-02-6-5-6-2-9-1"
       style="fill:#3949ab;fill-opacity:1;stroke:none;stroke-width:0.199627"
       d="M 48.95045,89.308783 0.84993,61.926913 c 0,0 0,0 0,54.763737 z"
       sodipodi:nodetypes="cccc" />
    <path
       id="rect835-02-36-5"
       style="fill:#c5cae9;fill-opacity:1;stroke:none;stroke-width:0.199627"
       d="m 97.05099,61.926903 48.10052,-27.38187 c 0,0 0,0 0,54.76374 z"
       sodipodi:nodetypes="cccc" />
    <path
       id="rect835-02-3-0-5"
       style="fill:#9fa8da;fill-opacity:1;stroke:none;stroke-width:0.199627"
       d="m 193.25204,61.926923 -48.10052,-27.38187 c 0,0 0,0 0,54.76374 z"
       sodipodi:nodetypes="cccc" />
    <path
       id="rect835-02-6-6-4"
       style="fill:#7986cb;fill-opacity:1;stroke:none;stroke-width:0.199627"
       d="m 145.15151,89.804063 48.10053,-27.38187 c 0,0 0,0 0,54.763737 z"
       sodipodi:nodetypes="cccc" />
    <path
       id="rect835-02-6-5-2-7"
       style="fill:#5c6bc0;fill-opacity:1;stroke:none;stroke-width:0.199627"
       d="m 193.25204,117.18593 -48.10053,27.38187 c 0,0 0,0 0,-54.763737 z"
       sodipodi:nodetypes="cccc" />
    <path
       id="rect835-02-6-5-6-6-6"
       style="fill:#3f51b5;fill-opacity:1;stroke:none;stroke-width:0.199627"
       d="m 97.05098,117.18592 48.10053,-27.381867 c 0,0 0,0 0,54.763737 z"
       sodipodi:nodetypes="cccc" />
    <path
       id="rect835-02-6-5-6-2-1-5"
       style="fill:#3949ab;fill-opacity:1;stroke:none;stroke-width:0.199627"
       d="M 145.15151,89.308773 97.05099,61.926903 c 0,0 0,0 0,54.763737 z"
       sodipodi:nodetypes="cccc" />
    <path
       id="rect835-02-8-6"
       style="fill:#c5cae9;fill-opacity:1;stroke:none;stroke-width:0.199627"
       d="m 193.25205,61.926883 48.10052,-27.38187 c 0,0 0,0 0,54.76374 z"
       sodipodi:nodetypes="cccc" />
    <path
       id="rect835-02-3-7-9"
       style="fill:#9fa8da;fill-opacity:1;stroke:none;stroke-width:0.199627"
       d="m 289.4531,61.926903 -48.10052,-27.38187 c 0,0 0,0 0,54.76374 z"
       sodipodi:nodetypes="cccc" />
    <path
       id="rect835-02-6-9-3"
       style="fill:#7986cb;fill-opacity:1;stroke:none;stroke-width:0.199627"
       d="m 241.35257,89.804043 48.10053,-27.38187 c 0,0 0,0 0,54.763737 z"
       sodipodi:nodetypes="cccc" />
    <path
       id="rect835-02-6-5-20-7"
       style="fill:#5c6bc0;fill-opacity:1;stroke:none;stroke-width:0.199627"
       d="m 289.4531,117.18591 -48.10053,27.38187 c 0,0 0,0 0,-54.763737 z"
       sodipodi:nodetypes="cccc" />
    <path
       id="rect835-02-6-5-6-23-4"
       style="fill:#3f51b5;fill-opacity:1;stroke:none;stroke-width:0.199627"
       d="m 193.25204,117.1859 48.10053,-27.381867 c 0,0 0,0 0,54.763737 z"
       sodipodi:nodetypes="cccc" />
    <path
       id="rect835-02-6-5-6-2-7-5"
       style="fill:#3949ab;fill-opacity:1;stroke:none;stroke-width:0.199627"
       d="m 241.35257,89.308753 -48.10052,-27.38187 c 0,0 0,0 0,54.763737 z"
       sodipodi:nodetypes="cccc" />
    <path
       id="rect835-02-5-2"
       style="fill:#c5cae9;fill-opacity:1;stroke:none;stroke-width:0.199627"
       d="m 289.4531,61.926903 48.10052,-27.38187 c 0,0 0,0 0,54.76374 z"
       sodipodi:nodetypes="cccc" />
    <path
       id="rect835-02-3-9-5"
       style="fill:#9fa8da;fill-opacity:1;stroke:none;stroke-width:0.199627"
       d="m 385.65415,61.926923 -48.10052,-27.38187 c 0,0 0,0 0,54.76374 z"
       sodipodi:nodetypes="cccc" />
    <path
       id="rect835-02-6-22-4"
       style="fill:#7986cb;fill-opacity:1;stroke:none;stroke-width:0.199627"
       d="m 337.55362,89.804063 48.10053,-27.38187 c 0,0 0,0 0,54.763737 z"
       sodipodi:nodetypes="cccc" />
    <path
       id="rect835-02-6-5-8-7"
       style="fill:#5c6bc0;fill-opacity:1;stroke:none;stroke-width:0.199627"
       d="m 385.65415,117.18593 -48.10053,27.38187 c 0,0 0,0 0,-54.763737 z"
       sodipodi:nodetypes="cccc" />
    <path
       id="rect835-02-6-5-6-9-4"
       style="fill:#3f51b5;fill-opacity:1;stroke:none;stroke-width:0.199627"
       d="m 289.45309,117.18592 48.10053,-27.381867 c 0,0 0,0 0,54.763737 z"
       sodipodi:nodetypes="cccc" />
    <path
       id="rect835-02-6-5-6-2-73-4"
       style="fill:#3949ab;fill-opacity:1;stroke:none;stroke-width:0.199627"
       d="M 337.55362,89.308773 289.4531,61.926903 c 0,0 0,0 0,54.763737 z"
       sodipodi:nodetypes="cccc" />
    <path
       id="rect835-02-61-3"
       style="fill:#c5cae9;fill-opacity:1;stroke:none;stroke-width:0.199627"
       d="m 385.65416,61.926903 48.10052,-27.38188 c 0,0 0,0 0,54.76375 z"
       sodipodi:nodetypes="cccc" />
    <path
       id="rect835-02-3-2-0"
       style="fill:#9fa8da;fill-opacity:1;stroke:none;stroke-width:0.199627"
       d="m 481.85521,61.926923 -48.10052,-27.38187 c 0,0 0,0 0,54.76374 z"
       sodipodi:nodetypes="cccc" />
    <path
       id="rect835-02-6-93-7"
       style="fill:#7986cb;fill-opacity:1;stroke:none;stroke-width:0.199627"
       d="m 433.75468,89.804063 48.10053,-27.38188 c 0,0 0,0 0,54.763747 z"
       sodipodi:nodetypes="cccc" />
    <path
       id="rect835-02-6-5-1-8"
       style="fill:#5c6bc0;fill-opacity:1;stroke:none;stroke-width:0.199627"
       d="m 481.85521,117.18593 -48.10053,27.38187 c 0,0 0,0 0,-54.763737 z"
       sodipodi:nodetypes="cccc" />
    <path
       id="rect835-02-6-5-6-94-6"
       style="fill:#3f51b5;fill-opacity:1;stroke:none;stroke-width:0.199627"
       d="m 385.65415,117.18592 48.10053,-27.381867 c 0,0 0,0 0,54.763737 z"
       sodipodi:nodetypes="cccc" />
    <path
       id="rect835-02-6-5-6-2-78-8"
       style="fill:#3949ab;fill-opacity:1;stroke:none;stroke-width:0.199627"
       d="m 433.75468,89.308773 -48.10052,-27.38188 c 0,0 0,0 0,54.763747 z"
       sodipodi:nodetypes="cccc" />
    <path
       id="rect835-02-84"
       style="fill:#c5cae9;fill-opacity:1;stroke:none;stroke-width:0.199627"
       d="M -47.250606,144.56781 0.84992,117.18594 c 0,0 0,0 0,54.76374 z"
       sodipodi:nodetypes="cccc" />
    <path
       id="rect835-02-3-3"
       style="fill:#9fa8da;fill-opacity:1;stroke:none;stroke-width:0.199627"
       d="M 48.950446,144.56783 0.849924,117.18596 c 0,0 0,0 0,54.76374 z"
       sodipodi:nodetypes="cccc" />
    <path
       id="rect835-02-6-1"
       style="fill:#7986cb;fill-opacity:1;stroke:none;stroke-width:0.199627"
       d="M 0.84992,172.44497 48.950446,145.0631 c 0,0 0,0 0,54.76374 z"
       sodipodi:nodetypes="cccc" />
    <path
       id="rect835-02-6-5-4"
       style="fill:#5c6bc0;fill-opacity:1;stroke:none;stroke-width:0.199627"
       d="M 48.950444,199.82684 0.849918,227.20871 c 0,0 0,0 0,-54.76374 z"
       sodipodi:nodetypes="cccc" />
    <path
       id="rect835-02-6-5-6-92"
       style="fill:#3f51b5;fill-opacity:1;stroke:none;stroke-width:0.199627"
       d="M -47.250612,199.82683 0.849914,172.44496 c 0,0 0,0 0,54.76374 z"
       sodipodi:nodetypes="cccc" />
    <path
       id="rect835-02-6-5-6-2-06"
       style="fill:#3949ab;fill-opacity:1;stroke:none;stroke-width:0.199627"
       d="m 0.84992,171.94968 -48.100526,-27.38187 c 0,0 0,0 0,54.76374 z"
       sodipodi:nodetypes="cccc" />
    <path
       id="rect835-02-9-8"
       style="fill:#c5cae9;fill-opacity:1;stroke:none;stroke-width:0.199627"
       d="M 48.950444,144.56781 97.05097,117.18594 c 0,0 0,0 0,54.76374 z"
       sodipodi:nodetypes="cccc" />
    <path
       id="rect835-02-3-1-9"
       style="fill:#9fa8da;fill-opacity:1;stroke:none;stroke-width:0.199627"
       d="M 145.1515,144.56783 97.05098,117.18596 c 0,0 0,0 0,54.76374 z"
       sodipodi:nodetypes="cccc" />
    <path
       id="rect835-02-6-2-26"
       style="fill:#7986cb;fill-opacity:1;stroke:none;stroke-width:0.199627"
       d="M 97.05097,172.44497 145.1515,145.0631 c 0,0 0,0 0,54.76374 z"
       sodipodi:nodetypes="cccc" />
    <path
       id="rect835-02-6-5-7-6"
       style="fill:#5c6bc0;fill-opacity:1;stroke:none;stroke-width:0.199627"
       d="m 145.1515,199.82684 -48.10053,27.38187 c 0,0 0,0 0,-54.76374 z"
       sodipodi:nodetypes="cccc" />
    <path
       id="rect835-02-6-5-6-0-4"
       style="fill:#3f51b5;fill-opacity:1;stroke:none;stroke-width:0.199627"
       d="M 48.950438,199.82683 97.05097,172.44496 c 0,0 0,0 0,54.76374 z"
       sodipodi:nodetypes="cccc" />
    <path
       id="rect835-02-6-5-6-2-9-9"
       style="fill:#3949ab;fill-opacity:1;stroke:none;stroke-width:0.199627"
       d="M 97.05097,171.94968 48.950444,144.56781 c 0,0 0,0 0,54.76374 z"
       sodipodi:nodetypes="cccc" />
    <path
       id="rect835-02-36-50"
       style="fill:#c5cae9;fill-opacity:1;stroke:none;stroke-width:0.199627"
       d="m 145.15151,144.5678 48.10052,-27.38187 c 0,0 0,0 0,54.76374 z"
       sodipodi:nodetypes="cccc" />
    <path
       id="rect835-02-3-0-4"
       style="fill:#9fa8da;fill-opacity:1;stroke:none;stroke-width:0.199627"
       d="m 241.35256,144.56782 -48.10052,-27.38187 c 0,0 0,0 0,54.76374 z"
       sodipodi:nodetypes="cccc" />
    <path
       id="rect835-02-6-6-8"
       style="fill:#7986cb;fill-opacity:1;stroke:none;stroke-width:0.199627"
       d="m 193.25203,172.44496 48.10053,-27.38187 c 0,0 0,0 0,54.76374 z"
       sodipodi:nodetypes="cccc" />
    <path
       id="rect835-02-6-5-2-71"
       style="fill:#5c6bc0;fill-opacity:1;stroke:none;stroke-width:0.199627"
       d="m 241.35256,199.82683 -48.10053,27.38187 c 0,0 0,0 0,-54.76374 z"
       sodipodi:nodetypes="cccc" />
    <path
       id="rect835-02-6-5-6-6-7"
       style="fill:#3f51b5;fill-opacity:1;stroke:none;stroke-width:0.199627"
       d="m 145.1515,199.82682 48.10053,-27.38187 c 0,0 0,0 0,54.76374 z"
       sodipodi:nodetypes="cccc" />
    <path
       id="rect835-02-6-5-6-2-1-2"
       style="fill:#3949ab;fill-opacity:1;stroke:none;stroke-width:0.199627"
       d="M 193.25203,171.94967 145.15151,144.5678 c 0,0 0,0 0,54.76374 z"
       sodipodi:nodetypes="cccc" />
    <path
       id="rect835-02-8-7"
       style="fill:#c5cae9;fill-opacity:1;stroke:none;stroke-width:0.199627"
       d="m 241.35257,144.56778 48.10052,-27.38187 c 0,0 0,0 0,54.76374 z"
       sodipodi:nodetypes="cccc" />
    <path
       id="rect835-02-3-7-2"
       style="fill:#9fa8da;fill-opacity:1;stroke:none;stroke-width:0.199627"
       d="M 337.55362,144.5678 289.4531,117.18593 c 0,0 0,0 0,54.76374 z"
       sodipodi:nodetypes="cccc" />
    <path
       id="rect835-02-6-9-2"
       style="fill:#7986cb;fill-opacity:1;stroke:none;stroke-width:0.199627"
       d="m 289.45309,172.44494 48.10053,-27.38187 c 0,0 0,0 0,54.76374 z"
       sodipodi:nodetypes="cccc" />
    <path
       id="rect835-02-6-5-20-6"
       style="fill:#5c6bc0;fill-opacity:1;stroke:none;stroke-width:0.199627"
       d="m 337.55362,199.82681 -48.10053,27.38187 c 0,0 0,0 0,-54.76374 z"
       sodipodi:nodetypes="cccc" />
    <path
       id="rect835-02-6-5-6-23-1"
       style="fill:#3f51b5;fill-opacity:1;stroke:none;stroke-width:0.199627"
       d="m 241.35256,199.8268 48.10053,-27.38187 c 0,0 0,0 0,54.76374 z"
       sodipodi:nodetypes="cccc" />
    <path
       id="rect835-02-6-5-6-2-7-0"
       style="fill:#3949ab;fill-opacity:1;stroke:none;stroke-width:0.199627"
       d="m 289.45309,171.94965 -48.10052,-27.38187 c 0,0 0,0 0,54.76374 z"
       sodipodi:nodetypes="cccc" />
    <path
       id="rect835-02-5-6"
       style="fill:#c5cae9;fill-opacity:1;stroke:none;stroke-width:0.199627"
       d="m 337.55362,144.5678 48.10052,-27.38187 c 0,0 0,0 0,54.76374 z"
       sodipodi:nodetypes="cccc" />
    <path
       id="rect835-02-3-9-1"
       style="fill:#9fa8da;fill-opacity:1;stroke:none;stroke-width:0.199627"
       d="m 433.75467,144.56782 -48.10052,-27.38187 c 0,0 0,0 0,54.76374 z"
       sodipodi:nodetypes="cccc" />
    <path
       id="rect835-02-6-22-5"
       style="fill:#7986cb;fill-opacity:1;stroke:none;stroke-width:0.199627"
       d="m 385.65414,172.44496 48.10053,-27.38187 c 0,0 0,0 0,54.76374 z"
       sodipodi:nodetypes="cccc" />
    <path
       id="rect835-02-6-5-8-9"
       style="fill:#5c6bc0;fill-opacity:1;stroke:none;stroke-width:0.199627"
       d="m 433.75467,199.82683 -48.10053,27.38187 c 0,0 0,0 0,-54.76374 z"
       sodipodi:nodetypes="cccc" />
    <path
       id="rect835-02-6-5-6-9-49"
       style="fill:#3f51b5;fill-opacity:1;stroke:none;stroke-width:0.199627"
       d="m 337.55361,199.82682 48.10053,-27.38187 c 0,0 0,0 0,54.76374 z"
       sodipodi:nodetypes="cccc" />
    <path
       id="rect835-02-6-5-6-2-73-0"
       style="fill:#3949ab;fill-opacity:1;stroke:none;stroke-width:0.199627"
       d="M 385.65414,171.94967 337.55362,144.5678 c 0,0 0,0 0,54.76374 z"
       sodipodi:nodetypes="cccc" />
    <path
       id="rect835-02-61-9"
       style="fill:#c5cae9;fill-opacity:1;stroke:none;stroke-width:0.199627"
       d="m 433.75468,144.5678 48.10052,-27.38188 c 0,0 0,0 0,54.76375 z"
       sodipodi:nodetypes="cccc" />
    <path
       id="rect835-02-3-2-1"
       style="fill:#9fa8da;fill-opacity:1;stroke:none;stroke-width:0.199627"
       d="m 529.95573,144.56782 -48.10052,-27.38187 c 0,0 0,0 0,54.76374 z"
       sodipodi:nodetypes="cccc" />
    <path
       id="rect835-02-6-93-77"
       style="fill:#7986cb;fill-opacity:1;stroke:none;stroke-width:0.199627"
       d="m 481.8552,172.44496 48.10053,-27.38188 c 0,0 0,0 0,54.76375 z"
       sodipodi:nodetypes="cccc" />
    <path
       id="rect835-02-6-5-1-1"
       style="fill:#5c6bc0;fill-opacity:1;stroke:none;stroke-width:0.199627"
       d="M 529.95573,199.82683 481.8552,227.2087 c 0,0 0,0 0,-54.76374 z"
       sodipodi:nodetypes="cccc" />
    <path
       id="rect835-02-6-5-6-94-1"
       style="fill:#3f51b5;fill-opacity:1;stroke:none;stroke-width:0.199627"
       d="m 433.75467,199.82682 48.10053,-27.38187 c 0,0 0,0 0,54.76374 z"
       sodipodi:nodetypes="cccc" />
    <path
       id="rect835-02-6-5-6-2-78-5"
       style="fill:#3949ab;fill-opacity:1;stroke:none;stroke-width:0.199627"
       d="m 481.8552,171.94967 -48.10052,-27.38188 c 0,0 0,0 0,54.76375 z"
       sodipodi:nodetypes="cccc" />
    <path
       id="rect835-02-61-9-4"
       style="fill:#c5cae9;fill-opacity:1;stroke:none;stroke-width:0.199627"
       d="m 481.85521,62.422187 48.10052,-27.38188 c 0,0 0,0 0,54.76375 z"
       sodipodi:nodetypes="cccc" />
    <path
       id="rect835-02-3-2-1-6"
       style="fill:#9fa8da;fill-opacity:1;stroke:none;stroke-width:0.199627"
       d="m 578.05626,62.422207 -48.10052,-27.38187 c 0,0 0,0 0,54.76374 z"
       sodipodi:nodetypes="cccc" />
    <path
       id="rect835-02-6-93-77-9"
       style="fill:#7986cb;fill-opacity:1;stroke:none;stroke-width:0.199627"
       d="m 529.95573,90.299347 48.10053,-27.38188 c 0,0 0,0 0,54.763753 z"
       sodipodi:nodetypes="cccc" />
    <path
       id="rect835-02-6-5-1-1-2"
       style="fill:#5c6bc0;fill-opacity:1;stroke:none;stroke-width:0.199627"
       d="m 578.05626,117.68122 -48.10053,27.38187 c 0,0 0,0 0,-54.763743 z"
       sodipodi:nodetypes="cccc" />
    <path
       id="rect835-02-6-5-6-94-1-2"
       style="fill:#3f51b5;fill-opacity:1;stroke:none;stroke-width:0.199627"
       d="m 481.8552,117.68121 48.10053,-27.381873 c 0,0 0,0 0,54.763743 z"
       sodipodi:nodetypes="cccc" />
    <path
       id="rect835-02-6-5-6-2-78-5-4"
       style="fill:#3949ab;fill-opacity:1;stroke:none;stroke-width:0.199627"
       d="m 529.95573,89.804057 -48.10052,-27.38188 c 0,0 0,0 0,54.763753 z"
       sodipodi:nodetypes="cccc" />
    <path
       id="rect835-02-61-9-7"
       style="fill:#c5cae9;fill-opacity:1;stroke:none;stroke-width:0.199627"
       d="m 481.8552,227.20869 48.10052,-27.38188 c 0,0 0,0 0,54.76375 z"
       sodipodi:nodetypes="cccc" />
    <path
       id="rect835-02-3-2-1-7"
       style="fill:#9fa8da;fill-opacity:1;stroke:none;stroke-width:0.199627"
       d="m 578.05625,227.20871 -48.10052,-27.38187 c 0,0 0,0 0,54.76374 z"
       sodipodi:nodetypes="cccc" />
    <path
       id="rect835-02-6-93-77-5"
       style="fill:#7986cb;fill-opacity:1;stroke:none;stroke-width:0.199627"
       d="m 529.95572,255.08585 48.10053,-27.38188 c 0,0 0,0 0,54.76375 z"
       sodipodi:nodetypes="cccc" />
    <path
       id="rect835-02-6-5-1-1-4"
       style="fill:#5c6bc0;fill-opacity:1;stroke:none;stroke-width:0.199627"
       d="m 578.05625,282.46772 -48.10053,27.38187 c 0,0 0,0 0,-54.76374 z"
       sodipodi:nodetypes="cccc" />
    <path
       id="rect835-02-6-5-6-94-1-8"
       style="fill:#3f51b5;fill-opacity:1;stroke:none;stroke-width:0.199627"
       d="m 481.85519,282.46771 48.10053,-27.38187 c 0,0 0,0 0,54.76374 z"
       sodipodi:nodetypes="cccc" />
    <path
       id="rect835-02-6-5-6-2-78-5-1"
       style="fill:#3949ab;fill-opacity:1;stroke:none;stroke-width:0.199627"
       d="M 529.95572,254.59056 481.8552,227.20868 c 0,0 0,0 0,54.76375 z"
       sodipodi:nodetypes="cccc" />
    <path
       id="rect835-02-97"
       style="fill:#c5cae9;fill-opacity:1;stroke:none;stroke-width:0.199627"
       d="m -95.351142,227.20873 48.100522,-27.38187 c 0,0 0,0 0,54.76374 z"
       sodipodi:nodetypes="cccc" />
    <path
       id="rect835-02-3-76"
       style="fill:#9fa8da;fill-opacity:1;stroke:none;stroke-width:0.199627"
       d="m 0.84991,227.20875 -48.10052,-27.38187 c 0,0 0,0 0,54.76374 z"
       sodipodi:nodetypes="cccc" />
    <path
       id="rect835-02-6-7"
       style="fill:#7986cb;fill-opacity:1;stroke:none;stroke-width:0.199627"
       d="M -47.25062,255.08589 0.84991,227.70402 c 0,0 0,0 0,54.76374 z"
       sodipodi:nodetypes="cccc" />
    <path
       id="rect835-02-6-5-36"
       style="fill:#5c6bc0;fill-opacity:1;stroke:none;stroke-width:0.199627"
       d="m 0.84991,282.46776 -48.10053,27.38187 c 0,0 0,0 0,-54.76374 z"
       sodipodi:nodetypes="cccc" />
    <path
       id="rect835-02-6-5-6-5"
       style="fill:#3f51b5;fill-opacity:1;stroke:none;stroke-width:0.199627"
       d="m -95.351148,282.46775 48.100528,-27.38187 c 0,0 0,0 0,54.76374 z"
       sodipodi:nodetypes="cccc" />
    <path
       id="rect835-02-6-5-6-2-6"
       style="fill:#3949ab;fill-opacity:1;stroke:none;stroke-width:0.199627"
       d="m -47.25062,254.5906 -48.100522,-27.38187 c 0,0 0,0 0,54.76374 z"
       sodipodi:nodetypes="cccc" />
    <path
       id="rect835-02-9-3"
       style="fill:#c5cae9;fill-opacity:1;stroke:none;stroke-width:0.199627"
       d="m 0.84991,227.20873 48.10052,-27.38187 c 0,0 0,0 0,54.76374 z"
       sodipodi:nodetypes="cccc" />
    <path
       id="rect835-02-3-1-94"
       style="fill:#9fa8da;fill-opacity:1;stroke:none;stroke-width:0.199627"
       d="M 97.05096,227.20875 48.95044,199.82688 c 0,0 0,0 0,54.76374 z"
       sodipodi:nodetypes="cccc" />
    <path
       id="rect835-02-6-2-8"
       style="fill:#7986cb;fill-opacity:1;stroke:none;stroke-width:0.199627"
       d="m 48.95043,255.08589 48.10053,-27.38187 c 0,0 0,0 0,54.76374 z"
       sodipodi:nodetypes="cccc" />
    <path
       id="rect835-02-6-5-7-1"
       style="fill:#5c6bc0;fill-opacity:1;stroke:none;stroke-width:0.199627"
       d="m 97.05096,282.46776 -48.10053,27.38187 c 0,0 0,0 0,-54.76374 z"
       sodipodi:nodetypes="cccc" />
    <path
       id="rect835-02-6-5-6-0-2"
       style="fill:#3f51b5;fill-opacity:1;stroke:none;stroke-width:0.199627"
       d="m 0.8499,282.46775 48.10053,-27.38187 c 0,0 0,0 0,54.76374 z"
       sodipodi:nodetypes="cccc" />
    <path
       id="rect835-02-6-5-6-2-9-93"
       style="fill:#3949ab;fill-opacity:1;stroke:none;stroke-width:0.199627"
       d="M 48.95043,254.5906 0.84991,227.20873 c 0,0 0,0 0,54.76374 z"
       sodipodi:nodetypes="cccc" />
    <path
       id="rect835-02-36-9"
       style="fill:#c5cae9;fill-opacity:1;stroke:none;stroke-width:0.199627"
       d="m 97.05097,227.20872 48.10052,-27.38187 c 0,0 0,0 0,54.76374 z"
       sodipodi:nodetypes="cccc" />
    <path
       id="rect835-02-3-0-0"
       style="fill:#9fa8da;fill-opacity:1;stroke:none;stroke-width:0.199627"
       d="M 193.25202,227.20874 145.1515,199.82687 c 0,0 0,0 0,54.76374 z"
       sodipodi:nodetypes="cccc" />
    <path
       id="rect835-02-6-6-88"
       style="fill:#7986cb;fill-opacity:1;stroke:none;stroke-width:0.199627"
       d="m 145.15149,255.08588 48.10053,-27.38187 c 0,0 0,0 0,54.76374 z"
       sodipodi:nodetypes="cccc" />
    <path
       id="rect835-02-6-5-2-5"
       style="fill:#5c6bc0;fill-opacity:1;stroke:none;stroke-width:0.199627"
       d="m 193.25202,282.46775 -48.10053,27.38187 c 0,0 0,0 0,-54.76374 z"
       sodipodi:nodetypes="cccc" />
    <path
       id="rect835-02-6-5-6-6-0"
       style="fill:#3f51b5;fill-opacity:1;stroke:none;stroke-width:0.199627"
       d="m 97.05096,282.46774 48.10053,-27.38187 c 0,0 0,0 0,54.76374 z"
       sodipodi:nodetypes="cccc" />
    <path
       id="rect835-02-6-5-6-2-1-9"
       style="fill:#3949ab;fill-opacity:1;stroke:none;stroke-width:0.199627"
       d="M 145.15149,254.59059 97.05097,227.20872 c 0,0 0,0 0,54.76374 z"
       sodipodi:nodetypes="cccc" />
    <path
       id="rect835-02-8-63"
       style="fill:#c5cae9;fill-opacity:1;stroke:none;stroke-width:0.199627"
       d="m 193.25203,227.2087 48.10052,-27.38187 c 0,0 0,0 0,54.76374 z"
       sodipodi:nodetypes="cccc" />
    <path
       id="rect835-02-3-7-8"
       style="fill:#9fa8da;fill-opacity:1;stroke:none;stroke-width:0.199627"
       d="m 289.45308,227.20872 -48.10052,-27.38187 c 0,0 0,0 0,54.76374 z"
       sodipodi:nodetypes="cccc" />
    <path
       id="rect835-02-6-9-5"
       style="fill:#7986cb;fill-opacity:1;stroke:none;stroke-width:0.199627"
       d="m 241.35255,255.08586 48.10053,-27.38187 c 0,0 0,0 0,54.76374 z"
       sodipodi:nodetypes="cccc" />
    <path
       id="rect835-02-6-5-20-61"
       style="fill:#5c6bc0;fill-opacity:1;stroke:none;stroke-width:0.199627"
       d="m 289.45308,282.46773 -48.10053,27.38187 c 0,0 0,0 0,-54.76374 z"
       sodipodi:nodetypes="cccc" />
    <path
       id="rect835-02-6-5-6-23-15"
       style="fill:#3f51b5;fill-opacity:1;stroke:none;stroke-width:0.199627"
       d="m 193.25202,282.46772 48.10053,-27.38187 c 0,0 0,0 0,54.76374 z"
       sodipodi:nodetypes="cccc" />
    <path
       id="rect835-02-6-5-6-2-7-9"
       style="fill:#3949ab;fill-opacity:1;stroke:none;stroke-width:0.199627"
       d="M 241.35255,254.59057 193.25203,227.2087 c 0,0 0,0 0,54.76374 z"
       sodipodi:nodetypes="cccc" />
    <path
       id="rect835-02-5-8"
       style="fill:#c5cae9;fill-opacity:1;stroke:none;stroke-width:0.199627"
       d="m 289.45308,227.20872 48.10052,-27.38187 c 0,0 0,0 0,54.76374 z"
       sodipodi:nodetypes="cccc" />
    <path
       id="rect835-02-3-9-4"
       style="fill:#9fa8da;fill-opacity:1;stroke:none;stroke-width:0.199627"
       d="m 385.65413,227.20874 -48.10052,-27.38187 c 0,0 0,0 0,54.76374 z"
       sodipodi:nodetypes="cccc" />
    <path
       id="rect835-02-6-22-8"
       style="fill:#7986cb;fill-opacity:1;stroke:none;stroke-width:0.199627"
       d="m 337.5536,255.08588 48.10053,-27.38187 c 0,0 0,0 0,54.76374 z"
       sodipodi:nodetypes="cccc" />
    <path
       id="rect835-02-6-5-8-1"
       style="fill:#5c6bc0;fill-opacity:1;stroke:none;stroke-width:0.199627"
       d="m 385.65413,282.46775 -48.10053,27.38187 c 0,0 0,0 0,-54.76374 z"
       sodipodi:nodetypes="cccc" />
    <path
       id="rect835-02-6-5-6-9-0"
       style="fill:#3f51b5;fill-opacity:1;stroke:none;stroke-width:0.199627"
       d="m 289.45307,282.46774 48.10053,-27.38187 c 0,0 0,0 0,54.76374 z"
       sodipodi:nodetypes="cccc" />
    <path
       id="rect835-02-6-5-6-2-73-3"
       style="fill:#3949ab;fill-opacity:1;stroke:none;stroke-width:0.199627"
       d="m 337.5536,254.59059 -48.10052,-27.38187 c 0,0 0,0 0,54.76374 z"
       sodipodi:nodetypes="cccc" />
    <path
       id="rect835-02-61-0"
       style="fill:#c5cae9;fill-opacity:1;stroke:none;stroke-width:0.199627"
       d="m 385.65414,227.20872 48.10052,-27.38188 c 0,0 0,0 0,54.76375 z"
       sodipodi:nodetypes="cccc" />
    <path
       id="rect835-02-3-2-4"
       style="fill:#9fa8da;fill-opacity:1;stroke:none;stroke-width:0.199627"
       d="m 481.85519,227.20874 -48.10052,-27.38187 c 0,0 0,0 0,54.76374 z"
       sodipodi:nodetypes="cccc" />
    <path
       id="rect835-02-6-93-4"
       style="fill:#7986cb;fill-opacity:1;stroke:none;stroke-width:0.199627"
       d="M 433.75466,255.08588 481.85519,227.704 c 0,0 0,0 0,54.76375 z"
       sodipodi:nodetypes="cccc" />
    <path
       id="rect835-02-6-5-1-4"
       style="fill:#5c6bc0;fill-opacity:1;stroke:none;stroke-width:0.199627"
       d="m 481.85519,282.46775 -48.10053,27.38187 c 0,0 0,0 0,-54.76374 z"
       sodipodi:nodetypes="cccc" />
    <path
       id="rect835-02-6-5-6-94-4"
       style="fill:#3f51b5;fill-opacity:1;stroke:none;stroke-width:0.199627"
       d="m 385.65413,282.46774 48.10053,-27.38187 c 0,0 0,0 0,54.76374 z"
       sodipodi:nodetypes="cccc" />
    <path
       id="rect835-02-6-5-6-2-78-7"
       style="fill:#3949ab;fill-opacity:1;stroke:none;stroke-width:0.199627"
       d="m 433.75466,254.59059 -48.10052,-27.38188 c 0,0 0,0 0,54.76375 z"
       sodipodi:nodetypes="cccc" />
    <path
       id="rect835-02-63"
       style="fill:#c5cae9;fill-opacity:1;stroke:none;stroke-width:0.199627"
       d="M -47.250611,309.35431 0.8499151,281.97244 c 0,0 0,0 0,54.76374 z"
       sodipodi:nodetypes="cccc" />
    <path
       id="rect835-02-3-17"
       style="fill:#9fa8da;fill-opacity:1;stroke:none;stroke-width:0.199627"
       d="M 48.950441,309.35433 0.8499191,281.97246 c 0,0 0,0 0,54.76374 z"
       sodipodi:nodetypes="cccc" />
    <path
       id="rect835-02-6-59"
       style="fill:#7986cb;fill-opacity:1;stroke:none;stroke-width:0.199627"
       d="M 0.8499151,337.23147 48.950441,309.8496 c 0,0 0,0 0,54.76374 z"
       sodipodi:nodetypes="cccc" />
    <path
       id="rect835-02-6-5-62"
       style="fill:#5c6bc0;fill-opacity:1;stroke:none;stroke-width:0.199627"
       d="M 48.950439,364.61334 0.8499131,391.99521 c 0,0 0,0 0,-54.76374 z"
       sodipodi:nodetypes="cccc" />
    <path
       id="rect835-02-6-5-6-1"
       style="fill:#3f51b5;fill-opacity:1;stroke:none;stroke-width:0.199627"
       d="M -47.250617,364.61333 0.8499091,337.23146 c 0,0 0,0 0,54.76374 z"
       sodipodi:nodetypes="cccc" />
    <path
       id="rect835-02-6-5-6-2-785"
       style="fill:#3949ab;fill-opacity:1;stroke:none;stroke-width:0.199627"
       d="M 0.8499151,336.73618 -47.250611,309.35431 c 0,0 0,0 0,54.76374 z"
       sodipodi:nodetypes="cccc" />
    <path
       id="rect835-02-9-7"
       style="fill:#c5cae9;fill-opacity:1;stroke:none;stroke-width:0.199627"
       d="M 48.950439,309.35431 97.05096,281.97244 c 0,0 0,0 0,54.76374 z"
       sodipodi:nodetypes="cccc" />
    <path
       id="rect835-02-3-1-4"
       style="fill:#9fa8da;fill-opacity:1;stroke:none;stroke-width:0.199627"
       d="M 145.15149,309.35433 97.05097,281.97246 c 0,0 0,0 0,54.76374 z"
       sodipodi:nodetypes="cccc" />
    <path
       id="rect835-02-6-2-1"
       style="fill:#7986cb;fill-opacity:1;stroke:none;stroke-width:0.199627"
       d="m 97.05096,337.23147 48.10053,-27.38187 c 0,0 0,0 0,54.76374 z"
       sodipodi:nodetypes="cccc" />
    <path
       id="rect835-02-6-5-7-8"
       style="fill:#5c6bc0;fill-opacity:1;stroke:none;stroke-width:0.199627"
       d="m 145.15149,364.61334 -48.10053,27.38187 c 0,0 0,0 0,-54.76374 z"
       sodipodi:nodetypes="cccc" />
    <path
       id="rect835-02-6-5-6-0-5"
       style="fill:#3f51b5;fill-opacity:1;stroke:none;stroke-width:0.199627"
       d="M 48.950433,364.61333 97.05096,337.23146 c 0,0 0,0 0,54.76374 z"
       sodipodi:nodetypes="cccc" />
    <path
       id="rect835-02-6-5-6-2-9-97"
       style="fill:#3949ab;fill-opacity:1;stroke:none;stroke-width:0.199627"
       d="M 97.05096,336.73618 48.950439,309.35431 c 0,0 0,0 0,54.76374 z"
       sodipodi:nodetypes="cccc" />
    <path
       id="rect835-02-36-53"
       style="fill:#c5cae9;fill-opacity:1;stroke:none;stroke-width:0.199627"
       d="m 145.1515,309.3543 48.10052,-27.38187 c 0,0 0,0 0,54.76374 z"
       sodipodi:nodetypes="cccc" />
    <path
       id="rect835-02-3-0-8"
       style="fill:#9fa8da;fill-opacity:1;stroke:none;stroke-width:0.199627"
       d="m 241.35255,309.35432 -48.10052,-27.38187 c 0,0 0,0 0,54.76374 z"
       sodipodi:nodetypes="cccc" />
    <path
       id="rect835-02-6-6-83"
       style="fill:#7986cb;fill-opacity:1;stroke:none;stroke-width:0.199627"
       d="m 193.25202,337.23146 48.10053,-27.38187 c 0,0 0,0 0,54.76374 z"
       sodipodi:nodetypes="cccc" />
    <path
       id="rect835-02-6-5-2-1"
       style="fill:#5c6bc0;fill-opacity:1;stroke:none;stroke-width:0.199627"
       d="m 241.35255,364.61333 -48.10053,27.38187 c 0,0 0,0 0,-54.76374 z"
       sodipodi:nodetypes="cccc" />
    <path
       id="rect835-02-6-5-6-6-8"
       style="fill:#3f51b5;fill-opacity:1;stroke:none;stroke-width:0.199627"
       d="m 145.15149,364.61332 48.10053,-27.38187 c 0,0 0,0 0,54.76374 z"
       sodipodi:nodetypes="cccc" />
    <path
       id="rect835-02-6-5-6-2-1-96"
       style="fill:#3949ab;fill-opacity:1;stroke:none;stroke-width:0.199627"
       d="M 193.25202,336.73617 145.1515,309.3543 c 0,0 0,0 0,54.76374 z"
       sodipodi:nodetypes="cccc" />
    <path
       id="rect835-02-8-4"
       style="fill:#c5cae9;fill-opacity:1;stroke:none;stroke-width:0.199627"
       d="m 241.35256,309.35428 48.10052,-27.38187 c 0,0 0,0 0,54.76374 z"
       sodipodi:nodetypes="cccc" />
    <path
       id="rect835-02-3-7-3"
       style="fill:#9fa8da;fill-opacity:1;stroke:none;stroke-width:0.199627"
       d="m 337.55361,309.3543 -48.10052,-27.38187 c 0,0 0,0 0,54.76374 z"
       sodipodi:nodetypes="cccc" />
    <path
       id="rect835-02-6-9-33"
       style="fill:#7986cb;fill-opacity:1;stroke:none;stroke-width:0.199627"
       d="m 289.45308,337.23144 48.10053,-27.38187 c 0,0 0,0 0,54.76374 z"
       sodipodi:nodetypes="cccc" />
    <path
       id="rect835-02-6-5-20-8"
       style="fill:#5c6bc0;fill-opacity:1;stroke:none;stroke-width:0.199627"
       d="m 337.55361,364.61331 -48.10053,27.38187 c 0,0 0,0 0,-54.76374 z"
       sodipodi:nodetypes="cccc" />
    <path
       id="rect835-02-6-5-6-23-6"
       style="fill:#3f51b5;fill-opacity:1;stroke:none;stroke-width:0.199627"
       d="m 241.35255,364.6133 48.10053,-27.38187 c 0,0 0,0 0,54.76374 z"
       sodipodi:nodetypes="cccc" />
    <path
       id="rect835-02-6-5-6-2-7-04"
       style="fill:#3949ab;fill-opacity:1;stroke:none;stroke-width:0.199627"
       d="m 289.45308,336.73615 -48.10052,-27.38187 c 0,0 0,0 0,54.76374 z"
       sodipodi:nodetypes="cccc" />
    <path
       id="rect835-02-5-88"
       style="fill:#c5cae9;fill-opacity:1;stroke:none;stroke-width:0.199627"
       d="m 337.55361,309.3543 48.10052,-27.38187 c 0,0 0,0 0,54.76374 z"
       sodipodi:nodetypes="cccc" />
    <path
       id="rect835-02-3-9-8"
       style="fill:#9fa8da;fill-opacity:1;stroke:none;stroke-width:0.199627"
       d="m 433.75466,309.35432 -48.10052,-27.38187 c 0,0 0,0 0,54.76374 z"
       sodipodi:nodetypes="cccc" />
    <path
       id="rect835-02-6-22-9"
       style="fill:#7986cb;fill-opacity:1;stroke:none;stroke-width:0.199627"
       d="m 385.65413,337.23146 48.10053,-27.38187 c 0,0 0,0 0,54.76374 z"
       sodipodi:nodetypes="cccc" />
    <path
       id="rect835-02-6-5-8-77"
       style="fill:#5c6bc0;fill-opacity:1;stroke:none;stroke-width:0.199627"
       d="m 433.75466,364.61333 -48.10053,27.38187 c 0,0 0,0 0,-54.76374 z"
       sodipodi:nodetypes="cccc" />
    <path
       id="rect835-02-6-5-6-9-6"
       style="fill:#3f51b5;fill-opacity:1;stroke:none;stroke-width:0.199627"
       d="m 337.5536,364.61332 48.10053,-27.38187 c 0,0 0,0 0,54.76374 z"
       sodipodi:nodetypes="cccc" />
    <path
       id="rect835-02-6-5-6-2-73-43"
       style="fill:#3949ab;fill-opacity:1;stroke:none;stroke-width:0.199627"
       d="M 385.65413,336.73617 337.55361,309.3543 c 0,0 0,0 0,54.76374 z"
       sodipodi:nodetypes="cccc" />
    <path
       id="rect835-02-61-03"
       style="fill:#c5cae9;fill-opacity:1;stroke:none;stroke-width:0.199627"
       d="m 433.75467,309.3543 48.10052,-27.38188 c 0,0 0,0 0,54.76375 z"
       sodipodi:nodetypes="cccc" />
    <path
       id="rect835-02-3-2-09"
       style="fill:#9fa8da;fill-opacity:1;stroke:none;stroke-width:0.199627"
       d="M 529.95572,309.35432 481.8552,281.97245 c 0,0 0,0 0,54.76374 z"
       sodipodi:nodetypes="cccc" />
    <path
       id="rect835-02-6-93-2"
       style="fill:#7986cb;fill-opacity:1;stroke:none;stroke-width:0.199627"
       d="m 481.85519,337.23146 48.10053,-27.38188 c 0,0 0,0 0,54.76375 z"
       sodipodi:nodetypes="cccc" />
    <path
       id="rect835-02-6-5-1-5"
       style="fill:#5c6bc0;fill-opacity:1;stroke:none;stroke-width:0.199627"
       d="m 529.95572,364.61333 -48.10053,27.38187 c 0,0 0,0 0,-54.76374 z"
       sodipodi:nodetypes="cccc" />
    <path
       id="rect835-02-6-5-6-94-40"
       style="fill:#3f51b5;fill-opacity:1;stroke:none;stroke-width:0.199627"
       d="m 433.75466,364.61332 48.10053,-27.38187 c 0,0 0,0 0,54.76374 z"
       sodipodi:nodetypes="cccc" />
    <path
       id="rect835-02-6-5-6-2-78-59"
       style="fill:#3949ab;fill-opacity:1;stroke:none;stroke-width:0.199627"
       d="m 481.85519,336.73617 -48.10052,-27.38188 c 0,0 0,0 0,54.76375 z"
       sodipodi:nodetypes="cccc" />
  </g>
</svg>
